<mxfile host="app.diagrams.net" agent="Mozilla/5.0 (Windows NT 10.0; Win64; x64) AppleWebKit/537.36 (KHTML, like Gecko) Chrome/135.0.0.0 Safari/537.36 Edg/135.0.0.0" version="26.2.14">
  <diagram id="prtHgNgQTEPvFCAcTncT" name="Page-1">
    <mxGraphModel dx="2206" dy="760" grid="1" gridSize="10" guides="1" tooltips="1" connect="1" arrows="1" fold="1" page="1" pageScale="1" pageWidth="827" pageHeight="1169" background="light-dark(#FFFFFF,#7EA6E0)" math="0" shadow="0">
      <root>
        <mxCell id="0" />
        <mxCell id="1" parent="0" />
        <mxCell id="ztPW5d4EabjY-B8oM5Ry-5" value="&lt;h1 style=&quot;margin-top: 0px;&quot;&gt;传感&lt;/h1&gt;" style="text;html=1;whiteSpace=wrap;overflow=hidden;rounded=0;" vertex="1" parent="1">
          <mxGeometry x="140" y="470" width="180" height="120" as="geometry" />
        </mxCell>
        <mxCell id="ztPW5d4EabjY-B8oM5Ry-6" value="" style="rounded=0;whiteSpace=wrap;html=1;" vertex="1" parent="1">
          <mxGeometry x="140" y="510" width="210" height="140" as="geometry" />
        </mxCell>
        <mxCell id="ztPW5d4EabjY-B8oM5Ry-7" value="&lt;h1 style=&quot;margin-top: 0px;&quot;&gt;温度传感器 → 光谱传感器&amp;nbsp; &amp;nbsp;pH/ORP → 电导率 → 离子电极&lt;/h1&gt;" style="text;html=1;whiteSpace=wrap;overflow=hidden;rounded=0;" vertex="1" parent="1">
          <mxGeometry x="150" y="520" width="190" height="150" as="geometry" />
        </mxCell>
        <mxCell id="ztPW5d4EabjY-B8oM5Ry-10" value="" style="shape=loopLimit;whiteSpace=wrap;html=1;" vertex="1" parent="1">
          <mxGeometry x="460" y="440" width="310" height="250" as="geometry" />
        </mxCell>
        <mxCell id="ztPW5d4EabjY-B8oM5Ry-11" value="&lt;h1 style=&quot;margin-top: 0px;&quot;&gt;通信&lt;/h1&gt;" style="text;html=1;whiteSpace=wrap;overflow=hidden;rounded=0;" vertex="1" parent="1">
          <mxGeometry x="680" y="685" width="180" height="120" as="geometry" />
        </mxCell>
        <mxCell id="ztPW5d4EabjY-B8oM5Ry-16" value="连接" style="swimlane;startSize=20;horizontal=1;containerType=tree;newEdgeStyle={&quot;edgeStyle&quot;:&quot;elbowEdgeStyle&quot;,&quot;startArrow&quot;:&quot;none&quot;,&quot;endArrow&quot;:&quot;none&quot;};" vertex="1" parent="1">
          <mxGeometry x="475" y="455" width="280" height="220" as="geometry" />
        </mxCell>
        <mxCell id="ztPW5d4EabjY-B8oM5Ry-17" value="" style="edgeStyle=elbowEdgeStyle;elbow=vertical;sourcePerimeterSpacing=0;targetPerimeterSpacing=0;startArrow=none;endArrow=none;rounded=0;curved=0;" edge="1" parent="ztPW5d4EabjY-B8oM5Ry-16" source="ztPW5d4EabjY-B8oM5Ry-19" target="ztPW5d4EabjY-B8oM5Ry-20">
          <mxGeometry relative="1" as="geometry" />
        </mxCell>
        <mxCell id="ztPW5d4EabjY-B8oM5Ry-18" value="" style="edgeStyle=elbowEdgeStyle;elbow=vertical;sourcePerimeterSpacing=0;targetPerimeterSpacing=0;startArrow=none;endArrow=none;rounded=0;curved=0;" edge="1" parent="ztPW5d4EabjY-B8oM5Ry-16" source="ztPW5d4EabjY-B8oM5Ry-19" target="ztPW5d4EabjY-B8oM5Ry-21">
          <mxGeometry relative="1" as="geometry" />
        </mxCell>
        <UserObject label="RainMaker 和云端" treeRoot="1" id="ztPW5d4EabjY-B8oM5Ry-19">
          <mxCell style="whiteSpace=wrap;html=1;align=center;treeFolding=1;treeMoving=1;newEdgeStyle={&quot;edgeStyle&quot;:&quot;elbowEdgeStyle&quot;,&quot;startArrow&quot;:&quot;none&quot;,&quot;endArrow&quot;:&quot;none&quot;};" vertex="1" parent="ztPW5d4EabjY-B8oM5Ry-16">
            <mxGeometry x="80" y="40" width="120" height="60" as="geometry" />
          </mxCell>
        </UserObject>
        <mxCell id="ztPW5d4EabjY-B8oM5Ry-20" value="ESP rm 与蓝牙" style="whiteSpace=wrap;html=1;align=center;verticalAlign=middle;treeFolding=1;treeMoving=1;newEdgeStyle={&quot;edgeStyle&quot;:&quot;elbowEdgeStyle&quot;,&quot;startArrow&quot;:&quot;none&quot;,&quot;endArrow&quot;:&quot;none&quot;};" vertex="1" parent="ztPW5d4EabjY-B8oM5Ry-16">
          <mxGeometry x="20" y="140" width="100" height="60" as="geometry" />
        </mxCell>
        <mxCell id="ztPW5d4EabjY-B8oM5Ry-21" value="LoRa 系" style="whiteSpace=wrap;html=1;align=center;verticalAlign=middle;treeFolding=1;treeMoving=1;newEdgeStyle={&quot;edgeStyle&quot;:&quot;elbowEdgeStyle&quot;,&quot;startArrow&quot;:&quot;none&quot;,&quot;endArrow&quot;:&quot;none&quot;};" vertex="1" parent="ztPW5d4EabjY-B8oM5Ry-16">
          <mxGeometry x="160" y="140" width="100" height="60" as="geometry" />
        </mxCell>
        <mxCell id="ztPW5d4EabjY-B8oM5Ry-22" value="" style="shape=doubleArrow;whiteSpace=wrap;html=1;" vertex="1" parent="1">
          <mxGeometry x="350" y="585" width="110" height="60" as="geometry" />
        </mxCell>
        <mxCell id="ztPW5d4EabjY-B8oM5Ry-23" value="&lt;h1&gt;&lt;font face=&quot;Comic Sans MS&quot;&gt;交互&lt;/font&gt;&lt;/h1&gt;" style="swimlane;fontStyle=0;childLayout=stackLayout;horizontal=1;startSize=26;fillColor=none;horizontalStack=0;resizeParent=1;resizeParentMax=0;resizeLast=0;collapsible=1;marginBottom=0;html=1;" vertex="1" parent="1">
          <mxGeometry x="465" y="860" width="300" height="130" as="geometry" />
        </mxCell>
        <mxCell id="ztPW5d4EabjY-B8oM5Ry-25" value="1&amp;nbsp; &amp;nbsp; &amp;nbsp; &amp;nbsp; &amp;nbsp;&amp;nbsp;蜂鸣报警 ← LED指示 │" style="text;strokeColor=none;fillColor=none;align=left;verticalAlign=top;spacingLeft=4;spacingRight=4;overflow=hidden;rotatable=0;points=[[0,0.5],[1,0.5]];portConstraint=eastwest;whiteSpace=wrap;html=1;" vertex="1" parent="ztPW5d4EabjY-B8oM5Ry-23">
          <mxGeometry y="26" width="300" height="26" as="geometry" />
        </mxCell>
        <mxCell id="ztPW5d4EabjY-B8oM5Ry-28" value="2&amp;nbsp; &amp;nbsp; &amp;nbsp; &amp;nbsp; &amp;nbsp;&amp;nbsp;OLED显示 ← 按钮控制│" style="text;strokeColor=none;fillColor=none;align=left;verticalAlign=top;spacingLeft=4;spacingRight=4;overflow=hidden;rotatable=0;points=[[0,0.5],[1,0.5]];portConstraint=eastwest;whiteSpace=wrap;html=1;" vertex="1" parent="ztPW5d4EabjY-B8oM5Ry-23">
          <mxGeometry y="52" width="300" height="26" as="geometry" />
        </mxCell>
        <mxCell id="ztPW5d4EabjY-B8oM5Ry-31" value="----------------------------------------------------------------------" style="text;strokeColor=none;fillColor=none;align=left;verticalAlign=top;spacingLeft=4;spacingRight=4;overflow=hidden;rotatable=0;points=[[0,0.5],[1,0.5]];portConstraint=eastwest;whiteSpace=wrap;html=1;" vertex="1" parent="ztPW5d4EabjY-B8oM5Ry-23">
          <mxGeometry y="78" width="300" height="26" as="geometry" />
        </mxCell>
        <mxCell id="ztPW5d4EabjY-B8oM5Ry-30" value="&amp;nbsp; &amp;nbsp; &amp;nbsp; &amp;nbsp; &amp;nbsp; &amp;nbsp; 数据显示（ESP&amp;nbsp; rm）" style="text;strokeColor=none;fillColor=none;align=left;verticalAlign=top;spacingLeft=4;spacingRight=4;overflow=hidden;rotatable=0;points=[[0,0.5],[1,0.5]];portConstraint=eastwest;whiteSpace=wrap;html=1;" vertex="1" parent="ztPW5d4EabjY-B8oM5Ry-23">
          <mxGeometry y="104" width="300" height="26" as="geometry" />
        </mxCell>
        <mxCell id="ztPW5d4EabjY-B8oM5Ry-29" value="" style="shape=mxgraph.arrows.stylised_notched_arrow;html=1;verticalLabelPosition=bottom;verticalAlign=top;strokeWidth=2;strokeColor=#000000;rotation=90;" vertex="1" parent="1">
          <mxGeometry x="529" y="745" width="166" height="60" as="geometry" />
        </mxCell>
        <mxCell id="ztPW5d4EabjY-B8oM5Ry-34" value="" style="edgeStyle=orthogonalEdgeStyle;sourcePerimeterSpacing=0;targetPerimeterSpacing=0;startArrow=none;endArrow=none;rounded=0;targetPortConstraint=eastwest;sourcePortConstraint=northsouth;curved=0;rounded=0;" edge="1" target="ztPW5d4EabjY-B8oM5Ry-36" parent="1">
          <mxGeometry relative="1" as="geometry">
            <mxPoint x="230" y="650" as="sourcePoint" />
          </mxGeometry>
        </mxCell>
        <mxCell id="ztPW5d4EabjY-B8oM5Ry-35" value="" style="edgeStyle=orthogonalEdgeStyle;sourcePerimeterSpacing=0;targetPerimeterSpacing=0;startArrow=none;endArrow=none;rounded=0;targetPortConstraint=eastwest;sourcePortConstraint=northsouth;curved=0;rounded=0;" edge="1" target="ztPW5d4EabjY-B8oM5Ry-37" parent="1">
          <mxGeometry relative="1" as="geometry">
            <mxPoint x="230" y="650" as="sourcePoint" />
          </mxGeometry>
        </mxCell>
        <mxCell id="ztPW5d4EabjY-B8oM5Ry-36" value="信号调理 → 温度补偿" style="whiteSpace=wrap;html=1;align=center;verticalAlign=middle;treeFolding=1;treeMoving=1;labelBorderColor=light-dark(#000000,#FF0000);" vertex="1" parent="1">
          <mxGeometry x="50" y="690" width="170" height="140" as="geometry" />
        </mxCell>
        <mxCell id="ztPW5d4EabjY-B8oM5Ry-37" value="校准计算 → 质量验证" style="whiteSpace=wrap;html=1;align=center;verticalAlign=middle;treeFolding=1;treeMoving=1;" vertex="1" parent="1">
          <mxGeometry x="240" y="690" width="190" height="140" as="geometry" />
        </mxCell>
        <mxCell id="ztPW5d4EabjY-B8oM5Ry-39" value="&lt;h1 style=&quot;margin-top: 0px;&quot;&gt;数据处理&lt;/h1&gt;" style="text;html=1;whiteSpace=wrap;overflow=hidden;rounded=0;" vertex="1" parent="1">
          <mxGeometry x="180" y="660" width="110" height="40" as="geometry" />
        </mxCell>
        <mxCell id="ztPW5d4EabjY-B8oM5Ry-40" value="&lt;h1&gt;&lt;b&gt;&lt;font face=&quot;Garamond&quot;&gt;电池管理与存储&lt;/font&gt;&lt;/b&gt;&lt;/h1&gt;" style="ellipse;whiteSpace=wrap;html=1;align=center;newEdgeStyle={&quot;edgeStyle&quot;:&quot;entityRelationEdgeStyle&quot;,&quot;startArrow&quot;:&quot;none&quot;,&quot;endArrow&quot;:&quot;none&quot;,&quot;segment&quot;:10,&quot;curved&quot;:1,&quot;sourcePerimeterSpacing&quot;:0,&quot;targetPerimeterSpacing&quot;:0};treeFolding=1;treeMoving=1;" vertex="1" parent="1">
          <mxGeometry x="-100" y="990" width="320" height="120" as="geometry" />
        </mxCell>
        <mxCell id="ztPW5d4EabjY-B8oM5Ry-41" value="SD卡存储 → 深度睡眠" style="whiteSpace=wrap;html=1;rounded=1;arcSize=50;align=center;verticalAlign=middle;strokeWidth=1;autosize=1;spacing=4;treeFolding=1;treeMoving=1;newEdgeStyle={&quot;edgeStyle&quot;:&quot;entityRelationEdgeStyle&quot;,&quot;startArrow&quot;:&quot;none&quot;,&quot;endArrow&quot;:&quot;none&quot;,&quot;segment&quot;:10,&quot;curved&quot;:1,&quot;sourcePerimeterSpacing&quot;:0,&quot;targetPerimeterSpacing&quot;:0};" vertex="1" parent="1">
          <mxGeometry x="260" y="1190" width="163" height="30" as="geometry" />
        </mxCell>
        <mxCell id="ztPW5d4EabjY-B8oM5Ry-42" value="" style="edgeStyle=entityRelationEdgeStyle;startArrow=none;endArrow=none;segment=10;curved=1;sourcePerimeterSpacing=0;targetPerimeterSpacing=0;rounded=0;" edge="1" parent="1">
          <mxGeometry relative="1" as="geometry">
            <mxPoint x="195" y="1080" as="sourcePoint" />
            <mxPoint x="265" y="1190" as="targetPoint" />
          </mxGeometry>
        </mxCell>
        <mxCell id="ztPW5d4EabjY-B8oM5Ry-45" value="锂电池监控 → 软启动" style="whiteSpace=wrap;html=1;rounded=1;arcSize=50;align=center;verticalAlign=middle;strokeWidth=1;autosize=1;spacing=4;treeFolding=1;treeMoving=1;newEdgeStyle={&quot;edgeStyle&quot;:&quot;entityRelationEdgeStyle&quot;,&quot;startArrow&quot;:&quot;none&quot;,&quot;endArrow&quot;:&quot;none&quot;,&quot;segment&quot;:10,&quot;curved&quot;:1,&quot;sourcePerimeterSpacing&quot;:0,&quot;targetPerimeterSpacing&quot;:0};" vertex="1" parent="1">
          <mxGeometry x="-170" y="1120" width="200" height="30" as="geometry" />
        </mxCell>
        <mxCell id="ztPW5d4EabjY-B8oM5Ry-46" value="" style="edgeStyle=entityRelationEdgeStyle;startArrow=none;endArrow=none;segment=10;curved=1;sourcePerimeterSpacing=0;targetPerimeterSpacing=0;rounded=0;" edge="1" parent="1">
          <mxGeometry relative="1" as="geometry">
            <mxPoint x="-60" y="1092" as="sourcePoint" />
            <mxPoint x="-160" y="1122" as="targetPoint" />
          </mxGeometry>
        </mxCell>
        <mxCell id="ztPW5d4EabjY-B8oM5Ry-47" value="" style="shape=flexArrow;endArrow=classic;startArrow=classic;html=1;rounded=0;startWidth=24.88888888888889;startSize=8.853333333333333;exitX=0.781;exitY=0.083;exitDx=0;exitDy=0;exitPerimeter=0;width=5.333333333333333;" edge="1" parent="1">
          <mxGeometry width="100" height="100" relative="1" as="geometry">
            <mxPoint x="150.00000000000009" y="999.96" as="sourcePoint" />
            <mxPoint x="230.08" y="760" as="targetPoint" />
            <Array as="points">
              <mxPoint x="230.08" y="890" />
            </Array>
          </mxGeometry>
        </mxCell>
        <mxCell id="ztPW5d4EabjY-B8oM5Ry-48" value="" style="shape=tee;whiteSpace=wrap;html=1;rotation=60;dx=14;dy=7;" vertex="1" parent="1">
          <mxGeometry x="278.51" y="747.23" width="77.32" height="320" as="geometry" />
        </mxCell>
      </root>
    </mxGraphModel>
  </diagram>
</mxfile>
